<svg width="127" height="126" viewBox="0 0 127 126" fill="none" xmlns="http://www.w3.org/2000/svg">
<g clip-path="url(#clip0_1_2)">
<path d="M108.068 107.004H89.2749V77.8627C89.2749 70.9138 89.1497 61.9684 79.5006 61.9684C69.7125 61.9684 68.2149 69.5396 68.2149 77.3568V107.002H49.4218V47.0762H67.4632V55.2657H67.7157C69.5213 52.209 72.1303 49.6945 75.2649 47.9898C78.3996 46.2852 81.9425 45.4543 85.5163 45.5857C104.564 45.5857 108.076 57.991 108.076 74.1295L108.068 107.004ZM28.217 38.8849C26.06 38.8852 23.9513 38.2523 22.1577 37.0661C20.364 35.8798 18.966 34.1936 18.1402 32.2206C17.3144 30.2476 17.098 28.0764 17.5184 25.9816C17.9388 23.8869 18.9772 21.9626 20.5021 20.4521C22.027 18.9417 23.9701 17.9129 26.0856 17.4958C28.201 17.0788 30.3938 17.2923 32.3867 18.1092C34.3797 18.9262 36.0832 20.3099 37.2818 22.0855C38.4805 23.8611 39.1205 25.9488 39.1209 28.0845C39.1212 29.5026 38.8393 30.9068 38.2915 32.217C37.7436 33.5272 36.9406 34.7178 35.9281 35.7207C34.9156 36.7236 33.7134 37.5192 32.3903 38.0621C31.0673 38.605 29.6492 38.8846 28.217 38.8849ZM37.6135 107.004H18.8009V47.0762H37.6135V107.004ZM117.437 0.00776265H9.35744C6.90434 -0.019648 4.54048 0.918381 2.78551 2.61572C1.03054 4.31306 0.0280314 6.63085 -0.00190735 9.05976V116.519C0.0270068 118.949 1.02893 121.268 2.78384 122.967C4.53875 124.667 6.90312 125.606 9.35744 125.581H117.437C119.896 125.611 122.267 124.674 124.029 122.975C125.791 121.276 126.8 118.954 126.834 116.519V9.05201C126.799 6.61828 125.789 4.29786 124.027 2.60056C122.265 0.903257 119.895 -0.0320918 117.437 6.19615e-06" fill="#0A66C2"/>
</g>
<defs>
<clipPath id="clip0_1_2">
<rect width="127" height="126" fill="white"/>
</clipPath>
</defs>
</svg>
