<svg width="126" height="126" viewBox="0 0 126 126" fill="none" xmlns="http://www.w3.org/2000/svg">
<g clip-path="url(#clip0_3_6)">
<mask id="mask0_3_6" style="mask-type:luminance" maskUnits="userSpaceOnUse" x="0" y="0" width="126" height="126">
<path d="M126 0H0V126H126V0Z" fill="white"/>
</mask>
<g mask="url(#mask0_3_6)">
<mask id="mask1_3_6" style="mask-type:luminance" maskUnits="userSpaceOnUse" x="0" y="0" width="126" height="126">
<path d="M126 0H0V126H126V0Z" fill="white"/>
</mask>
<g mask="url(#mask1_3_6)">
<path d="M84.6192 28.1921C98.089 28.1921 110.191 34.1007 118.399 43.544C121.188 46.7094 126.397 44.5461 125.976 40.3259C125.713 37.5825 125.187 34.7865 124.397 31.9905C120.241 17.1135 108.349 5.5073 93.4589 1.60339C63.5201 -6.30989 36.5805 16.1639 36.5805 44.9155C36.5805 46.7621 36.6857 48.6084 36.8962 50.402C37.4223 54.5698 42.9999 55.6247 44.9989 51.9321C52.5759 37.7935 67.4663 28.1921 84.6192 28.1921Z" fill="#FFA310"/>
<path d="M28.2083 41.3804C28.2083 27.9107 34.1132 15.809 43.5507 7.60079C46.7137 4.81214 44.5524 -0.396888 40.3346 0.0240419C37.5402 0.287124 34.7459 0.813287 31.9516 1.54992C17.0839 5.75922 5.48498 17.5979 1.58352 32.4884C-6.27212 62.4799 16.1876 89.4194 44.9214 89.4194C46.7665 89.4194 48.612 89.3143 50.4043 89.1037C54.5694 88.5776 55.6239 83.0001 51.9333 81.0007C37.8038 73.4241 28.2083 58.5337 28.2083 41.3804Z" fill="#149EF2"/>
<path d="M41.3563 97.8445C27.8944 97.8445 15.7997 91.9394 7.59634 82.502C4.8093 79.339 -0.396656 81.5003 0.0240279 85.7182C0.286955 88.4599 0.81281 91.2543 1.60159 94.0484C5.75584 108.916 17.6402 120.515 32.5219 124.417C62.4956 132.272 89.4194 109.813 89.4194 81.0786C89.4194 79.2335 89.3143 77.388 89.1037 75.5957C88.578 71.4306 83.0041 70.3761 81.0058 74.0667C73.3808 88.2488 58.499 97.8445 41.3563 97.8445Z" fill="#F20057"/>
<path d="M97.8445 84.6436C97.8445 98.1056 91.9394 110.2 82.502 118.404C79.3391 121.191 81.5003 126.397 85.7182 125.976C88.4599 125.713 91.2543 125.187 94.0484 124.398C108.916 120.244 120.515 108.36 124.417 93.4782C132.272 63.5044 109.813 36.5806 81.0786 36.5806C79.2335 36.5806 77.388 36.6858 75.5957 36.8961C71.4306 37.422 70.3761 42.9959 74.0667 44.9942C88.2488 52.6192 97.8445 67.501 97.8445 84.6436Z" fill="#8252DD"/>
</g>
</g>
</g>
<defs>
<clipPath id="clip0_3_6">
<rect width="126" height="126" fill="white"/>
</clipPath>
</defs>
</svg>
